<svg width="113" height="100" viewBox="0 0 113 100" fill="none" xmlns="http://www.w3.org/2000/svg">
<rect x="0.5" y="0.5" width="112" height="99" rx="5.5" fill="#ECEFF1" stroke="#90A4AE" stroke-dasharray="4 4"/>
<g clip-path="url(#clip0)">
<path d="M69.25 49C69.25 49.4641 69.0656 49.9092 68.7374 50.2374C68.4092 50.5656 67.9641 50.75 67.5 50.75H46.5C46.0359 50.75 45.5908 50.5656 45.2626 50.2374C44.9344 49.9092 44.75 49.4641 44.75 49V38.5C44.75 38.0359 44.9344 37.5908 45.2626 37.2626C45.5908 36.9344 46.0359 36.75 46.5 36.75H48.551C49.9427 36.7492 51.2771 36.196 52.261 35.2117L53.7135 33.7627C54.0408 33.4354 54.4844 33.251 54.9473 33.25H59.0492C59.5133 33.2501 59.9584 33.4345 60.2865 33.7627L61.7355 35.2117C62.2231 35.6995 62.802 36.0864 63.4392 36.3503C64.0764 36.6143 64.7593 36.7501 65.449 36.75H67.5C67.9641 36.75 68.4092 36.9344 68.7374 37.2626C69.0656 37.5908 69.25 38.0359 69.25 38.5V49ZM46.5 35C45.5717 35 44.6815 35.3687 44.0251 36.0251C43.3687 36.6815 43 37.5717 43 38.5V49C43 49.9283 43.3687 50.8185 44.0251 51.4749C44.6815 52.1313 45.5717 52.5 46.5 52.5H67.5C68.4283 52.5 69.3185 52.1313 69.9749 51.4749C70.6313 50.8185 71 49.9283 71 49V38.5C71 37.5717 70.6313 36.6815 69.9749 36.0251C69.3185 35.3687 68.4283 35 67.5 35H65.449C64.5208 34.9998 63.6307 34.6309 62.9745 33.9745L61.5255 32.5255C60.8693 31.8691 59.9792 31.5002 59.051 31.5H54.949C54.0208 31.5002 53.1307 31.8691 52.4745 32.5255L51.0255 33.9745C50.3693 34.6309 49.4792 34.9998 48.551 35H46.5Z" fill="#607D8B"/>
<path d="M57 47.25C55.8397 47.25 54.7269 46.7891 53.9064 45.9686C53.0859 45.1481 52.625 44.0353 52.625 42.875C52.625 41.7147 53.0859 40.6019 53.9064 39.7814C54.7269 38.9609 55.8397 38.5 57 38.5C58.1603 38.5 59.2731 38.9609 60.0936 39.7814C60.9141 40.6019 61.375 41.7147 61.375 42.875C61.375 44.0353 60.9141 45.1481 60.0936 45.9686C59.2731 46.7891 58.1603 47.25 57 47.25ZM57 49C58.6245 49 60.1824 48.3547 61.331 47.206C62.4797 46.0574 63.125 44.4995 63.125 42.875C63.125 41.2505 62.4797 39.6926 61.331 38.544C60.1824 37.3953 58.6245 36.75 57 36.75C55.3755 36.75 53.8176 37.3953 52.669 38.544C51.5203 39.6926 50.875 41.2505 50.875 42.875C50.875 44.4995 51.5203 46.0574 52.669 47.206C53.8176 48.3547 55.3755 49 57 49ZM48.25 39.375C48.25 39.6071 48.1578 39.8296 47.9937 39.9937C47.8296 40.1578 47.6071 40.25 47.375 40.25C47.1429 40.25 46.9204 40.1578 46.7563 39.9937C46.5922 39.8296 46.5 39.6071 46.5 39.375C46.5 39.1429 46.5922 38.9204 46.7563 38.7563C46.9204 38.5922 47.1429 38.5 47.375 38.5C47.6071 38.5 47.8296 38.5922 47.9937 38.7563C48.1578 38.9204 48.25 39.1429 48.25 39.375Z" fill="#607D8B"/>
</g>
<path d="M16.86 67V60.026H14.044V59.245H20.589V60.026H17.773V67H16.86ZM22.5183 67.099C22.1516 67.099 21.8216 67.0293 21.5283 66.89C21.2423 66.7433 21.015 66.5453 20.8463 66.296C20.6776 66.0467 20.5933 65.768 20.5933 65.46C20.5933 65.0713 20.6923 64.7633 20.8903 64.536C21.0956 64.3087 21.4293 64.1473 21.8913 64.052C22.3606 63.9493 22.9986 63.898 23.8053 63.898H24.1573V63.557C24.1573 63.1023 24.062 62.776 23.8713 62.578C23.688 62.3727 23.391 62.27 22.9803 62.27C22.6576 62.27 22.346 62.3177 22.0453 62.413C21.7446 62.501 21.4366 62.6477 21.1213 62.853L20.8133 62.204C21.092 62.006 21.4293 61.8483 21.8253 61.731C22.2286 61.6137 22.6136 61.555 22.9803 61.555C23.6696 61.555 24.1793 61.7237 24.5093 62.061C24.8466 62.3983 25.0153 62.9227 25.0153 63.634V67H24.1793V66.076C24.04 66.3913 23.8236 66.6407 23.5303 66.824C23.2443 67.0073 22.907 67.099 22.5183 67.099ZM22.6613 66.428C23.1013 66.428 23.4606 66.2777 23.7393 65.977C24.018 65.669 24.1573 65.2803 24.1573 64.811V64.481H23.8163C23.2223 64.481 22.753 64.5103 22.4083 64.569C22.071 64.6203 21.8326 64.7157 21.6933 64.855C21.5613 64.987 21.4953 65.1703 21.4953 65.405C21.4953 65.7057 21.598 65.9513 21.8033 66.142C22.016 66.3327 22.302 66.428 22.6613 66.428ZM26.9103 67V61.654H27.7793V62.556C27.9406 62.2333 28.1643 61.9877 28.4503 61.819C28.7363 61.643 29.07 61.555 29.4513 61.555C30.2873 61.555 30.8226 61.918 31.0573 62.644C31.2186 62.3067 31.457 62.0427 31.7723 61.852C32.0876 61.654 32.4506 61.555 32.8613 61.555C34.0493 61.555 34.6433 62.259 34.6433 63.667V67H33.7523V63.711C33.7523 63.2197 33.6643 62.8603 33.4883 62.633C33.3196 62.3983 33.0373 62.281 32.6413 62.281C32.2086 62.281 31.864 62.435 31.6073 62.743C31.3506 63.051 31.2223 63.4617 31.2223 63.975V67H30.3313V63.711C30.3313 63.2197 30.2433 62.8603 30.0673 62.633C29.8986 62.3983 29.6163 62.281 29.2203 62.281C28.7803 62.281 28.432 62.435 28.1753 62.743C27.926 63.051 27.8013 63.4617 27.8013 63.975V67H26.9103ZM39.2352 67.099C38.8099 67.099 38.4359 67.0037 38.1132 66.813C37.7979 66.6223 37.5595 66.362 37.3982 66.032V67H36.5292V59.245H37.4202V62.578C37.5742 62.2627 37.8125 62.0133 38.1352 61.83C38.4579 61.6467 38.8245 61.555 39.2352 61.555C39.7119 61.555 40.1262 61.6687 40.4782 61.896C40.8375 62.116 41.1125 62.435 41.3032 62.853C41.5012 63.2637 41.6002 63.755 41.6002 64.327C41.6002 64.8917 41.5012 65.383 41.3032 65.801C41.1125 66.2117 40.8375 66.5307 40.4782 66.758C40.1262 66.9853 39.7119 67.099 39.2352 67.099ZM39.0482 66.384C39.5469 66.384 39.9465 66.208 40.2472 65.856C40.5479 65.4967 40.6982 64.987 40.6982 64.327C40.6982 63.6597 40.5479 63.15 40.2472 62.798C39.9465 62.446 39.5469 62.27 39.0482 62.27C38.5495 62.27 38.1499 62.446 37.8492 62.798C37.5485 63.15 37.3982 63.6597 37.3982 64.327C37.3982 64.987 37.5485 65.4967 37.8492 65.856C38.1499 66.208 38.5495 66.384 39.0482 66.384ZM44.8453 67.099C44.4786 67.099 44.1486 67.0293 43.8553 66.89C43.5693 66.7433 43.342 66.5453 43.1733 66.296C43.0046 66.0467 42.9203 65.768 42.9203 65.46C42.9203 65.0713 43.0193 64.7633 43.2173 64.536C43.4226 64.3087 43.7563 64.1473 44.2183 64.052C44.6876 63.9493 45.3256 63.898 46.1323 63.898H46.4843V63.557C46.4843 63.1023 46.389 62.776 46.1983 62.578C46.015 62.3727 45.718 62.27 45.3073 62.27C44.9846 62.27 44.673 62.3177 44.3723 62.413C44.0716 62.501 43.7636 62.6477 43.4483 62.853L43.1403 62.204C43.419 62.006 43.7563 61.8483 44.1523 61.731C44.5556 61.6137 44.9406 61.555 45.3073 61.555C45.9966 61.555 46.5063 61.7237 46.8363 62.061C47.1736 62.3983 47.3423 62.9227 47.3423 63.634V67H46.5063V66.076C46.367 66.3913 46.1506 66.6407 45.8573 66.824C45.5713 67.0073 45.234 67.099 44.8453 67.099ZM44.9883 66.428C45.4283 66.428 45.7876 66.2777 46.0663 65.977C46.345 65.669 46.4843 65.2803 46.4843 64.811V64.481H46.1433C45.5493 64.481 45.08 64.5103 44.7353 64.569C44.398 64.6203 44.1596 64.7157 44.0203 64.855C43.8883 64.987 43.8223 65.1703 43.8223 65.405C43.8223 65.7057 43.925 65.9513 44.1303 66.142C44.343 66.3327 44.629 66.428 44.9883 66.428ZM49.2153 67V59.245H50.1063V62.534C50.2823 62.2113 50.528 61.9693 50.8433 61.808C51.166 61.6393 51.5253 61.555 51.9213 61.555C53.19 61.555 53.8243 62.259 53.8243 63.667V67H52.9333V63.722C52.9333 63.2233 52.8343 62.8603 52.6363 62.633C52.4456 62.3983 52.1376 62.281 51.7123 62.281C51.221 62.281 50.8286 62.435 50.5353 62.743C50.2493 63.0437 50.1063 63.447 50.1063 63.953V67H49.2153ZM55.6872 67V59.245H56.5782V64.03H56.6002L59.0752 61.654H60.2082L57.5242 64.228L60.4392 67H59.3063L56.6002 64.492H56.5782V67H55.6872ZM63.0365 67.099C62.6699 67.099 62.3399 67.0293 62.0465 66.89C61.7605 66.7433 61.5332 66.5453 61.3645 66.296C61.1959 66.0467 61.1115 65.768 61.1115 65.46C61.1115 65.0713 61.2105 64.7633 61.4085 64.536C61.6139 64.3087 61.9475 64.1473 62.4095 64.052C62.8789 63.9493 63.5169 63.898 64.3235 63.898H64.6755V63.557C64.6755 63.1023 64.5802 62.776 64.3895 62.578C64.2062 62.3727 63.9092 62.27 63.4985 62.27C63.1759 62.27 62.8642 62.3177 62.5635 62.413C62.2629 62.501 61.9549 62.6477 61.6395 62.853L61.3315 62.204C61.6102 62.006 61.9475 61.8483 62.3435 61.731C62.7469 61.6137 63.1319 61.555 63.4985 61.555C64.1879 61.555 64.6975 61.7237 65.0275 62.061C65.3649 62.3983 65.5335 62.9227 65.5335 63.634V67H64.6975V66.076C64.5582 66.3913 64.3419 66.6407 64.0485 66.824C63.7625 67.0073 63.4252 67.099 63.0365 67.099ZM63.1795 66.428C63.6195 66.428 63.9789 66.2777 64.2575 65.977C64.5362 65.669 64.6755 65.2803 64.6755 64.811V64.481H64.3345C63.7405 64.481 63.2712 64.5103 62.9265 64.569C62.5892 64.6203 62.3509 64.7157 62.2115 64.855C62.0795 64.987 62.0135 65.1703 62.0135 65.405C62.0135 65.7057 62.1162 65.9513 62.3215 66.142C62.5342 66.3327 62.8202 66.428 63.1795 66.428ZM67.4065 67V61.654H68.2755V62.567C68.4515 62.2297 68.7009 61.9767 69.0235 61.808C69.3462 61.6393 69.7092 61.555 70.1125 61.555C71.3812 61.555 72.0155 62.259 72.0155 63.667V67H71.1245V63.722C71.1245 63.2233 71.0255 62.8603 70.8275 62.633C70.6369 62.3983 70.3289 62.281 69.9035 62.281C69.4122 62.281 69.0199 62.435 68.7265 62.743C68.4405 63.0437 68.2975 63.447 68.2975 63.953V67H67.4065ZM77.0447 67V59.245H81.8407V60.004H77.9467V62.71H81.6207V63.469H77.9467V67H77.0447ZM85.188 67.099C84.6673 67.099 84.2163 66.9853 83.835 66.758C83.4536 66.5307 83.1566 66.2117 82.944 65.801C82.7386 65.383 82.636 64.8917 82.636 64.327C82.636 63.7623 82.7386 63.2747 82.944 62.864C83.1566 62.446 83.4536 62.1233 83.835 61.896C84.2163 61.6687 84.6673 61.555 85.188 61.555C85.7013 61.555 86.1486 61.6687 86.53 61.896C86.9186 62.1233 87.2156 62.446 87.421 62.864C87.6336 63.2747 87.74 63.7623 87.74 64.327C87.74 64.8917 87.6336 65.383 87.421 65.801C87.2156 66.2117 86.9186 66.5307 86.53 66.758C86.1486 66.9853 85.7013 67.099 85.188 67.099ZM85.188 66.384C85.6866 66.384 86.0863 66.208 86.387 65.856C86.6876 65.4967 86.838 64.987 86.838 64.327C86.838 63.6597 86.6876 63.15 86.387 62.798C86.0863 62.446 85.6866 62.27 85.188 62.27C84.682 62.27 84.2786 62.446 83.978 62.798C83.6846 63.15 83.538 63.6597 83.538 64.327C83.538 64.987 83.6846 65.4967 83.978 65.856C84.2786 66.208 84.682 66.384 85.188 66.384ZM91.3896 67.099C90.7589 67.099 90.2859 66.934 89.9706 66.604C89.6552 66.2667 89.4976 65.7827 89.4976 65.152V62.347H88.4526V61.654H89.4976V60.015H90.3886V61.654H92.0826V62.347H90.3886V65.064C90.3886 65.482 90.4766 65.801 90.6526 66.021C90.8286 66.2337 91.1146 66.34 91.5106 66.34C91.6279 66.34 91.7452 66.3253 91.8626 66.296C91.9799 66.2667 92.0862 66.2373 92.1816 66.208L92.3356 66.89C92.2402 66.9413 92.1009 66.989 91.9176 67.033C91.7342 67.077 91.5582 67.099 91.3896 67.099ZM95.4785 67.099C94.9579 67.099 94.5069 66.9853 94.1255 66.758C93.7442 66.5307 93.4472 66.2117 93.2345 65.801C93.0292 65.383 92.9265 64.8917 92.9265 64.327C92.9265 63.7623 93.0292 63.2747 93.2345 62.864C93.4472 62.446 93.7442 62.1233 94.1255 61.896C94.5069 61.6687 94.9579 61.555 95.4785 61.555C95.9919 61.555 96.4392 61.6687 96.8205 61.896C97.2092 62.1233 97.5062 62.446 97.7115 62.864C97.9242 63.2747 98.0305 63.7623 98.0305 64.327C98.0305 64.8917 97.9242 65.383 97.7115 65.801C97.5062 66.2117 97.2092 66.5307 96.8205 66.758C96.4392 66.9853 95.9919 67.099 95.4785 67.099ZM95.4785 66.384C95.9772 66.384 96.3769 66.208 96.6775 65.856C96.9782 65.4967 97.1285 64.987 97.1285 64.327C97.1285 63.6597 96.9782 63.15 96.6775 62.798C96.3769 62.446 95.9772 62.27 95.4785 62.27C94.9725 62.27 94.5692 62.446 94.2685 62.798C93.9752 63.15 93.8285 63.6597 93.8285 64.327C93.8285 64.987 93.9752 65.4967 94.2685 65.856C94.5692 66.208 94.9725 66.384 95.4785 66.384Z" fill="#607D8B"/>
<defs>
<clipPath id="clip0">
<rect width="28" height="28" fill="white" transform="translate(43 28)"/>
</clipPath>
</defs>
</svg>
